HIERARCHY
ROOT Hips
{
  OFFSET 5.84602e-005 68.8428 3.50346
  CHANNELS 6 Xposition Yposition Zposition Zrotation Xrotation Yrotation
  JOINT Spine
  {
    OFFSET 0 8.597 -4.6522
    CHANNELS 3 Zrotation Xrotation Yrotation
    JOINT Spine1
    {
      OFFSET 0 7.8454 0.4098
      CHANNELS 3 Zrotation Xrotation Yrotation
      JOINT Spine2
      {
        OFFSET 0 9.7078 -2.1609
        CHANNELS 3 Zrotation Xrotation Yrotation
        JOINT Neck
        {
          OFFSET 0 21.8761 -0.4549
          CHANNELS 3 Zrotation Xrotation Yrotation
          JOINT Head
          {
            OFFSET 0 12.3537 3.3602
            CHANNELS 3 Zrotation Xrotation Yrotation
            End Site
            {
              OFFSET 0.0001 18.9506 0.5657
            }
          }
        }
        JOINT LeftShoulder
        {
          OFFSET 2.2086 21.1115 7.2329
          CHANNELS 3 Zrotation Xrotation Yrotation
          JOINT LeftArm
          {
            OFFSET 13.1193 3.0282 -4.8998
            CHANNELS 3 Zrotation Xrotation Yrotation
            JOINT LeftForeArm
            {
              OFFSET 27.4081 -0.0973053 -0.2375
              CHANNELS 3 Zrotation Xrotation Yrotation
              JOINT LeftHand
              {
                OFFSET 22.8641 0.0662994 -0.1369
                CHANNELS 3 Zrotation Xrotation Yrotation
                JOINT LeftHandIndex1
                {
                  OFFSET 8.8614 0.775009 2.4612
                  CHANNELS 3 Zrotation Xrotation Yrotation
                  JOINT LeftHandIndex2
                  {
                    OFFSET 3.3146 -0.808304 0.5841
                    CHANNELS 3 Zrotation Xrotation Yrotation
                    JOINT LeftHandIndex3
                    {
                      OFFSET 2.2628 -0.552002 0.3989
                      CHANNELS 3 Zrotation Xrotation Yrotation
                      End Site
                      {
                        OFFSET 1.6102 -0.4807 0.2612
                      }
                    }
                  }
                }
                JOINT LeftHandMiddle1
                {
                  OFFSET 8.9937 0.895004 0.2143
                  CHANNELS 3 Zrotation Xrotation Yrotation
                  JOINT LeftHandMiddle2
                  {
                    OFFSET 4.0984 0.0113983 -0.0242
                    CHANNELS 3 Zrotation Xrotation Yrotation
                    JOINT LeftHandMiddle3
                    {
                      OFFSET 2.2716 0.00689697 -0.0138001
                      CHANNELS 3 Zrotation Xrotation Yrotation
                      End Site
                      {
                        OFFSET 2.0404 -0.1441 0.0027
                      }
                    }
                  }
                }
                JOINT LeftHandRing1
                {
                  OFFSET 8.5234 0.597198 -2.0164
                  CHANNELS 3 Zrotation Xrotation Yrotation
                  JOINT LeftHandRing2
                  {
                    OFFSET 3.7188 -0.188293 -0.2328
                    CHANNELS 3 Zrotation Xrotation Yrotation
                    JOINT LeftHandRing3
                    {
                      OFFSET 2.1191 -0.106598 -0.1332
                      CHANNELS 3 Zrotation Xrotation Yrotation
                      End Site
                      {
                        OFFSET 1.8737 -0.2304 -0.0886
                      }
                    }
                  }
                }
                JOINT LeftHandPinky1
                {
                  OFFSET 7.9094 -0.601089 -3.4825
                  CHANNELS 3 Zrotation Xrotation Yrotation
                  JOINT LeftHandPinky2
                  {
                    OFFSET 2.2874 -0.477005 -0.6314
                    CHANNELS 3 Zrotation Xrotation Yrotation
                    JOINT LeftHandPinky3
                    {
                      OFFSET 1.6774 -0.349396 -0.4633
                      CHANNELS 3 Zrotation Xrotation Yrotation
                      End Site
                      {
                        OFFSET 1.4888 -0.4091 -0.3416
                      }
                    }
                  }
                }
                JOINT LeftHandThumb1
                {
                  OFFSET 1.833 -1.3875 1.3896
                  CHANNELS 3 Zrotation Xrotation Yrotation
                  JOINT LeftHandThumb2
                  {
                    OFFSET 3.4129 -1.121 2.5732
                    CHANNELS 3 Zrotation Xrotation Yrotation
                    JOINT LeftHandThumb3
                    {
                      OFFSET 2.2474 -0.804199 1.6192
                      CHANNELS 3 Zrotation Xrotation Yrotation
                      End Site
                      {
                        OFFSET 1.6527 -0.5689 1.1317
                      }
                    }
                  }
                }
              }
            }
          }
        }
        JOINT RightShoulder
        {
          OFFSET -2.2086 21.1115 7.2329
          CHANNELS 3 Zrotation Xrotation Yrotation
          JOINT RightArm
          {
            OFFSET -13.1216 3.0287 -4.9007
            CHANNELS 3 Zrotation Xrotation Yrotation
            JOINT RightForeArm
            {
              OFFSET -27.4081 -0.0973053 -0.2375
              CHANNELS 3 Zrotation Xrotation Yrotation
              JOINT RightHand
              {
                OFFSET -22.8641 0.0664063 -0.1369
                CHANNELS 3 Zrotation Xrotation Yrotation
                JOINT RightHandIndex1
                {
                  OFFSET -8.8614 0.774994 2.4612
                  CHANNELS 3 Zrotation Xrotation Yrotation
                  JOINT RightHandIndex2
                  {
                    OFFSET -3.3146 -0.808304 0.5841
                    CHANNELS 3 Zrotation Xrotation Yrotation
                    JOINT RightHandIndex3
                    {
                      OFFSET -2.2628 -0.552002 0.3989
                      CHANNELS 3 Zrotation Xrotation Yrotation
                      End Site
                      {
                        OFFSET -1.6102 -0.4807 0.2612
                      }
                    }
                  }
                }
                JOINT RightHandMiddle1
                {
                  OFFSET -8.9937 0.894989 0.2143
                  CHANNELS 3 Zrotation Xrotation Yrotation
                  JOINT RightHandMiddle2
                  {
                    OFFSET -4.0984 0.0113983 -0.0242
                    CHANNELS 3 Zrotation Xrotation Yrotation
                    JOINT RightHandMiddle3
                    {
                      OFFSET -2.2716 0.00691223 -0.0138001
                      CHANNELS 3 Zrotation Xrotation Yrotation
                      End Site
                      {
                        OFFSET -2.0404 -0.1441 0.0027
                      }
                    }
                  }
                }
                JOINT RightHandRing1
                {
                  OFFSET -8.5234 0.597198 -2.0164
                  CHANNELS 3 Zrotation Xrotation Yrotation
                  JOINT RightHandRing2
                  {
                    OFFSET -3.7188 -0.188309 -0.2328
                    CHANNELS 3 Zrotation Xrotation Yrotation
                    JOINT RightHandRing3
                    {
                      OFFSET -2.1191 -0.106598 -0.1332
                      CHANNELS 3 Zrotation Xrotation Yrotation
                      End Site
                      {
                        OFFSET -1.8737 -0.2304 -0.0886
                      }
                    }
                  }
                }
                JOINT RightHandPinky1
                {
                  OFFSET -7.9094 -0.601105 -3.4825
                  CHANNELS 3 Zrotation Xrotation Yrotation
                  JOINT RightHandPinky2
                  {
                    OFFSET -2.2874 -0.477005 -0.6314
                    CHANNELS 3 Zrotation Xrotation Yrotation
                    JOINT RightHandPinky3
                    {
                      OFFSET -1.6774 -0.349396 -0.4633
                      CHANNELS 3 Zrotation Xrotation Yrotation
                      End Site
                      {
                        OFFSET -1.4888 -0.4091 -0.3416
                      }
                    }
                  }
                }
                JOINT RightHandThumb1
                {
                  OFFSET -1.833 -1.38751 1.3896
                  CHANNELS 3 Zrotation Xrotation Yrotation
                  JOINT RightHandThumb2
                  {
                    OFFSET -3.41299 -1.12099 2.5732
                    CHANNELS 3 Zrotation Xrotation Yrotation
                    JOINT RightHandThumb3
                    {
                      OFFSET -2.24741 -0.804108 1.6192
                      CHANNELS 3 Zrotation Xrotation Yrotation
                      End Site
                      {
                        OFFSET -1.6527 -0.5689 1.1317
                      }
                    }
                  }
                }
              }
            }
          }
        }
      }
    }
  }
  JOINT RightUpLeg
  {
    OFFSET -9.1966 3.8861 -0.7581
    CHANNELS 3 Zrotation Xrotation Yrotation
    JOINT RightLeg
    {
      OFFSET -0.7359 -41.0265 0
      CHANNELS 3 Zrotation Xrotation Yrotation
      JOINT RightFoot
      {
        OFFSET 0 -40.2855 0
        CHANNELS 3 Zrotation Xrotation Yrotation
        JOINT RightToeBase
        {
          OFFSET 0 -5.6122 11.7359
          CHANNELS 3 Zrotation Xrotation Yrotation
          End Site
          {
            OFFSET 0 0 7.8731
          }
        }
      }
    }
  }
  JOINT LeftUpLeg
  {
    OFFSET 9.1965 3.8864 -0.7581
    CHANNELS 3 Zrotation Xrotation Yrotation
    JOINT LeftLeg
    {
      OFFSET 0.7359 -41.0268 0
      CHANNELS 3 Zrotation Xrotation Yrotation
      JOINT LeftFoot
      {
        OFFSET 0 -40.2855 0
        CHANNELS 3 Zrotation Xrotation Yrotation
        JOINT LeftToeBase
        {
          OFFSET 0 -5.6122 11.7359
          CHANNELS 3 Zrotation Xrotation Yrotation
          End Site
          {
            OFFSET 0 0 7.8731
          }
        }
      }
    }
  }
}
MOTION
Frames:	4
Frame Time:	0.0333333
5.84602e-005 68.8428 3.50346 0 0 -0 0 0 -0 0 0 -0 0 0 -0 0 0 -0 0 0 -0 0 0 -0 0 0 -0 0 0 -0 0 0 -0 0 0 -0 0 0 -0 0 0 -0 0 0 -0 -0.0146107 -8.87603e-005 -2.63497e-007 2.99804e-018 -2.42657e-020 -1.42182e-022 0 0 -0 -0.0187562 -0.001176 5.858e-005 5.06224e-018 3.88251e-019 1.21329e-020 0 0 -0 -0.012269 -0.00324817 0.000675346 -1.74678e-018 3.88251e-019 -0 0 0 -0 0 0 -0 0 0 -0 0 0 -0 0 0 -0 0 0 -0 0 0 -0 0 0 -0 0 0 -0 0 0 -0 0 0 -0 0.0149955 -9.10982e-005 2.64101e-007 -9.69331e-018 1.21329e-020 -4.7394e-023 0 0 -0 0.0189956 -0.00119102 -5.96516e-005 -5.41541e-019 0 2.42657e-020 0 0 -0 0.0122698 -0.00324857 -0.000673756 -2.00796e-019 0 -1.94126e-019 0 0 -0 0 0 -0 0 0 -0 3.39842 1.33031 -0.0637918 -5.65207e-008 0.834868 -0.000436188 -3.39935 -2.16518 -0.0642563 -8.89002e-024 -1.18485e-023 -1.48106e-024 -3.39844 1.35642 0.0640283 -3.18788e-007 0.782166 -0.000588827 3.39931 -2.13858 0.0634662 1.1399e-023 0 -0 
2.35931 -8.32067 -56.9571 -0.00682213 -63.0021 43.9937 1.80224 12.9286 3.19259 2.95836 25.9347 6.20223 2.95837 25.9347 6.20222 6.03802e-006 2.28548e-005 -1.82613e-005 -0.00230458 -6.00064 29.9972 -2.39532e-006 -7.18495e-006 7.79951e-007 -6.75275 22.6147 -20.6546 -18.77 -7.03918 -70.1683 12.3522 -54.4691 -36.0561 -1.31813e-006 5.40399e-007 -8.55605e-007 -4.34747e-006 2.95536e-007 9.2505e-007 -1.31813e-006 5.40399e-007 -8.55605e-007 -1.31813e-006 5.40399e-007 -8.55605e-007 -0.0146502 -9.04739e-005 4.1691e-007 -2.27527e-006 1.81705e-006 9.72246e-007 -1.31813e-006 5.40399e-007 -8.55605e-007 -0.0187349 -0.00117594 5.69551e-005 -1.31807e-006 5.40543e-007 -8.55504e-007 -1.31813e-006 5.40399e-007 -8.55605e-007 -0.0122506 -0.00323928 0.00067404 -1.31811e-006 5.40509e-007 -8.55513e-007 -1.31813e-006 5.40399e-007 -8.55605e-007 -4.34747e-006 2.95536e-007 9.2505e-007 -1.31813e-006 5.40399e-007 -8.55605e-007 -2.39532e-006 -7.18495e-006 7.79951e-007 84.0168 6.9284 8.05856 -6.77001e-006 -1.36075e-005 74.9996 37.998 3.10469e-006 6.66279e-006 4.37401e-006 -2.1538e-006 -4.90923e-006 1.9906e-006 2.92841e-007 -1.46051e-006 4.38867e-006 1.9785e-006 2.73323e-007 4.37401e-006 -2.1538e-006 -4.90923e-006 0.0149935 -8.68786e-005 -4.21739e-007 4.38871e-006 1.97854e-006 2.73061e-007 4.37401e-006 -2.1538e-006 -4.90923e-006 0.0189483 -0.001181 -5.26816e-005 5.21204e-006 1.70783e-006 -1.5868e-007 4.37401e-006 -2.1538e-006 -4.90923e-006 0.0123468 -0.00326741 -0.000684801 4.3887e-006 1.97855e-006 2.72983e-007 4.37401e-006 -2.1538e-006 -4.90923e-006 1.9906e-006 2.92841e-007 -1.46051e-006 4.38867e-006 1.9785e-006 2.73323e-007 -25.0123 -10.0257 -29.351 -3.53434e-006 6.78295 -0.907941 -3.90375 20.5634 0.708412 -1.76556e-031 -6.36111e-015 -1.59028e-015 47.5032 -48.8412 87.3287 -0.0239697 75.67 2.53077 1.81517 11.2346 -0.0498008 -1.48969e-031 -9.54166e-015 -8.94531e-016 
2.35921 -8.32054 -56.9571 -0.00682213 -63.0021 43.9937 1.80224 12.9286 3.19259 2.95836 25.9347 6.20223 2.95837 25.9347 6.20222 -5.37798e-007 -1.51499e-006 -5.62505e-007 -0.00217566 -6.42903 29.9972 -5.37798e-007 -1.51499e-006 -5.62505e-007 -6.75275 22.6148 -20.6546 -18.77 -7.03917 -70.1683 12.3522 -54.4691 -36.0561 -1.31813e-006 5.40399e-007 -8.55605e-007 1.31813e-006 -5.40399e-007 8.55605e-007 9.54166e-015 -1.59028e-015 -3.18055e-015 -1.31813e-006 5.40399e-007 -8.55605e-007 -0.0146946 -8.83526e-005 -4.37733e-006 3.18055e-015 -1.59028e-015 -1.59028e-015 -1.31813e-006 5.40399e-007 -8.55605e-007 -0.0187392 -0.00117564 5.78792e-005 -1.59028e-014 -9.54166e-015 1.59028e-015 -1.31813e-006 5.40399e-007 -8.55605e-007 -0.0123396 -0.00327116 0.000678765 2.32522e-006 -1.3604e-006 -2.97038e-006 -1.31813e-006 5.40399e-007 -8.55605e-007 1.31813e-006 -5.40399e-007 8.55605e-007 9.54166e-015 -1.59028e-015 -3.18055e-015 -5.37798e-007 -1.51499e-006 -5.62505e-007 84.0168 6.9284 8.05856 -4.44057e-006 -1.66694e-006 76.4928 37.998 3.46261e-006 -1.05038e-005 -1.59028e-015 0 1.98785e-016 -3.53832e-006 -1.6445e-006 3.07131e-006 1.17944e-006 5.48168e-007 -1.02377e-006 -1.59028e-015 0 1.98785e-016 0.0149771 -9.12073e-005 -1.78345e-008 1.17938e-006 5.48035e-007 -1.02384e-006 -1.59028e-015 0 1.98785e-016 0.0189944 -0.00119226 -5.95672e-005 1.17936e-006 5.48003e-007 -1.02387e-006 -1.59028e-015 0 1.98785e-016 0.0123267 -0.00326351 -0.000686949 1.17936e-006 5.48077e-007 -1.02386e-006 -1.59028e-015 0 1.98785e-016 -3.53832e-006 -1.6445e-006 3.07131e-006 1.17944e-006 5.48168e-007 -1.02377e-006 -24.9878 -10.0214 -29.3477 -0.000231103 6.74961 -1.34016 -3.92069 20.5532 0.711123 3.57556e-007 -3.03391e-006 -1.48534e-007 47.5046 -48.8276 87.3199 -0.0244485 75.6839 2.16539 1.82547 11.2389 -0.0508923 3.76424e-006 -2.2082e-006 6.09699e-006 
2.35911 -8.32041 -56.9571 -0.0068385 -63.0021 43.9937 1.80225 12.9286 3.19261 2.95837 25.9347 6.20222 2.95837 25.9347 6.20222 -3.6988e-005 0.00021462 4.53527e-006 -0.00202618 -6.85749 29.9972 9.0355e-007 -7.50305e-006 1.30533e-006 -6.75276 22.6148 -20.6546 -18.77 -7.03915 -70.1683 12.3522 -54.4691 -36.0561 -1.31813e-006 5.404e-007 -8.55606e-007 -4.34747e-006 2.95538e-007 9.25049e-007 -4.34747e-006 2.95538e-007 9.25049e-007 -1.31813e-006 5.404e-007 -8.55606e-007 -0.0145711 -8.78584e-005 3.51749e-007 -4.34723e-006 2.95422e-007 9.2509e-007 -1.31813e-006 5.404e-007 -8.55606e-007 -0.0187375 -0.00117485 5.52418e-005 -4.34716e-006 2.95408e-007 9.25141e-007 -1.31813e-006 5.404e-007 -8.55606e-007 -0.0122403 -0.00324328 0.000670027 -4.34724e-006 2.95517e-007 9.25192e-007 -1.31813e-006 5.404e-007 -8.55606e-007 -4.34747e-006 2.95538e-007 9.25049e-007 -4.34747e-006 2.95538e-007 9.25049e-007 9.0355e-007 -7.50305e-006 1.30533e-006 84.0168 6.92839 8.05857 -1.79088e-005 -7.52352e-006 77.989 37.998 -3.54642e-006 2.82178e-006 -1.19321e-006 -5.32614e-007 1.01852e-006 -1.59028e-015 -1.35174e-014 -7.15625e-015 -1.19321e-006 -5.32614e-007 1.01852e-006 -1.19321e-006 -5.32614e-007 1.01852e-006 0.0150072 -8.86558e-005 3.01372e-006 -1.19315e-006 -5.3248e-007 1.01859e-006 -1.19321e-006 -5.32614e-007 1.01852e-006 0.019007 -0.00119024 -5.87672e-005 -1.19313e-006 -5.3245e-007 1.01862e-006 -1.19321e-006 -5.32614e-007 1.01852e-006 0.0122242 -0.0032246 -0.000677168 -1.19313e-006 -5.32524e-007 1.01861e-006 -1.19321e-006 -5.32614e-007 1.01852e-006 -1.59028e-015 -1.35174e-014 -7.15625e-015 -1.19321e-006 -5.32614e-007 1.01852e-006 -24.9632 -10.0168 -29.3444 -0.000454002 6.71524 -1.77245 -3.93767 20.5433 0.713856 4.04595e-006 -4.15103e-007 3.37005e-007 47.506 -48.814 87.3112 -0.0247625 75.6975 1.79988 1.83577 11.2434 -0.0519723 2.46434e-006 -1.09027e-006 4.40572e-006 
